{"accessors":[{"bufferView":2,"componentType":5126,"count":1251,"max":[0.49172064661979675,0.4788886308670044,0.5670083165168762],"min":[-0.49172064661979675,-0.4788886308670044,-0.5670083165168762],"type":"VEC3"},{"bufferView":2,"byteOffset":15012,"componentType":5126,"count":1251,"max":[0.9996050596237183,0.9992467761039734,0.9957299828529358],"min":[-0.9997099041938782,-0.9990357160568237,-0.9981142282485962],"type":"VEC3"},{"bufferView":3,"componentType":5126,"count":1251,"max":[0.952971339225769,0.9998488426208496,0.9999265670776367,1],"min":[-0.9830877780914307,-0.6772918701171875,-0.9996654987335205,1],"type":"VEC4"},{"bufferView":1,"componentType":5126,"count":1251,"max":[0.815222978591919,0.9997856020927429],"min":[0.000039458274841308594,0.00021457672119140625],"type":"VEC2"},{"bufferView":1,"byteOffset":10008,"componentType":5126,"count":1251,"max":[0.815222978591919,0.9997856020927429],"min":[0.000039458274841308594,0.00021457672119140625],"type":"VEC2"},{"bufferView":0,"componentType":5125,"count":6564,"type":"SCALAR"}],"asset":{"extras":{"author":"Manoel (https://sketchfab.com/manoel)","license":"SKETCHFAB Editorial (https://sketchfab.com/licenses)","source":"https://sketchfab.com/3d-models/doge-95bf11fc33aa4244ab7c2e27c5f14a0d","title":"Doge"},"generator":"Sketchfab-11.49.0","version":"2.0"},"bufferViews":[{"buffer":0,"byteLength":26256,"name":"floatBufferViews","target":34963},{"buffer":0,"byteLength":20016,"byteOffset":26256,"byteStride":8,"name":"floatBufferViews","target":34962},{"buffer":0,"byteLength":30024,"byteOffset":46272,"byteStride":12,"name":"floatBufferViews","target":34962},{"buffer":0,"byteLength":20016,"byteOffset":76296,"byteStride":16,"name":"floatBufferViews","target":34962}],"buffers":[{"byteLength":96312,"uri":"data:application/octet-stream;base64,"}],"images":[{"uri":"data:application/octet-stream;base64,"},{"uri":"data:application/octet-stream;base64,"}],"materials":[{"doubleSided":true,"name":"doge2_mtl0","normalTexture":{"index":1},"pbrMetallicRoughness":{"baseColorTexture":{"index":0},"metallicFactor":0,"roughnessFactor":0.6017045454545454}}],"meshes":[{"name":"Capa_1_doge2_mtl0_0","primitives":[{"attributes":{"NORMAL":1,"POSITION":0,"TANGENT":2,"TEXCOORD_0":3,"TEXCOORD_1":4},"indices":5,"material":0,"mode":4}]}],"nodes":[{"children":[1],"matrix":[1,0,0,0,0,2.220446049250313e-16,-1,0,0,1,2.220446049250313e-16,0,0,0,0,1],"name":"Sketchfab_model"},{"children":[2],"matrix":[1,0,0,0,0,0,1,0,0,-1,0,0,0,0,0,1],"name":"26b470f717684aae98d13f83e43a1f32.fbx"},{"children":[3],"name":"RootNode"},{"children":[4],"matrix":[0.7497036357109859,0,0.6617737216010692,0,0.5646117931412027,0.5216173775969248,-0.6396317959848329,0,-0.3451926732241072,0.8531795305730835,0.3910584444344447,0,0,0,0,1],"name":"Capa_1"},{"mesh":0,"name":"Capa_1_doge2_mtl0_0"}],"samplers":[{"magFilter":9729,"minFilter":9987,"wrapS":10497,"wrapT":10497}],"scene":0,"scenes":[{"name":"Sketchfab_Scene","nodes":[0]}],"textures":[{"sampler":0,"source":0},{"sampler":0,"source":1}]}