# Blender v3.0.1 OBJ File: ''
# www.blender.org
mtllib sky.mtl
o sky_Sphere.002
v -10.116838 -0.289097 0.000009
v -20.129856 0.406910 0.000009
v -29.936317 1.558979 0.000012
v -39.435585 3.155293 0.000017
v -48.530205 5.179470 0.000014
v -57.126820 7.610733 0.000008
v -65.137245 10.424149 0.000014
v -72.479256 13.590836 0.000008
v -79.077545 17.078300 0.000006
v -84.864410 20.850761 0.000012
v 0.000009 -0.521893 0.000010
v 10.116831 -0.289097 0.000007
v 20.129847 0.406910 0.000003
v 29.936308 1.558979 0.000002
v 39.435558 3.155293 0.000000
v 48.530178 5.179470 0.000008
v 57.126797 7.610733 0.000009
v 65.137222 10.424149 -0.000001
v 72.479218 13.590836 -0.000001
v 79.077538 17.078300 0.000008
v 84.864380 20.850761 0.000005
v -10.116838 -6.419365 0.000009
v -20.129856 -5.723362 0.000009
v -29.936317 -4.571289 0.000012
v -39.435585 -2.974979 0.000017
v -48.530205 -0.950802 0.000014
v -57.126820 1.480465 0.000008
v -65.137245 4.293877 0.000015
v -72.479256 7.460564 0.000008
v -79.077545 10.948029 0.000006
v -84.864410 14.720491 0.000012
v 0.000008 -6.652164 0.000011
v 10.116831 -6.419365 0.000007
v 20.129847 -5.723362 0.000003
v 29.936308 -4.571289 0.000003
v 39.435558 -2.974979 0.000000
v 48.530178 -0.950802 0.000009
v 57.126797 1.480465 0.000009
v 65.137222 4.293877 -0.000000
v 72.479218 7.460564 -0.000001
v 79.077538 10.948029 0.000008
v 84.864380 14.720491 0.000005
vt 0.500000 0.838710
vt 0.500000 0.806452
vt 0.500000 0.806452
vt 0.500000 0.838710
vt 0.000000 0.870968
vt 0.000000 0.838710
vt 0.000000 0.838710
vt 0.000000 0.870968
vt 0.500000 0.774194
vt 0.500000 0.774194
vt 0.000000 0.806452
vt 0.000000 0.806452
vt 0.500000 0.741936
vt 0.500000 0.741936
vt 0.000000 0.774194
vt 0.000000 0.774194
vt 0.500000 0.709677
vt 0.500000 0.709677
vt 0.500000 0.967742
vt 0.500000 0.935484
vt 0.500000 0.935484
vt 0.500000 0.967742
vt 0.000000 0.741936
vt 0.000000 0.741936
vt 0.515625 1.000000
vt 0.515625 1.000000
vt 0.015625 1.000000
vt 0.000000 0.967742
vt 0.000000 0.967742
vt 0.015625 1.000000
vt 0.500000 0.677419
vt 0.500000 0.677419
vt 0.500000 0.903226
vt 0.500000 0.903226
vt 0.000000 0.709677
vt 0.000000 0.709677
vt 0.000000 0.935484
vt 0.000000 0.935484
vt 0.500000 0.870968
vt 0.500000 0.870968
vt 0.000000 0.677419
vt 0.000000 0.677419
vt 0.000000 0.903226
vt 0.000000 0.903226
vn -0.0000 0.0000 1.0000
vn 0.0000 -0.0000 -1.0000
usemtl Material.002
s off
f 5/1/1 6/2/1 27/3/1 26/4/1
f 15/5/2 16/6/2 37/7/2 36/8/2
f 6/2/1 7/9/1 28/10/1 27/3/1
f 16/6/2 17/11/2 38/12/2 37/7/2
f 7/9/1 8/13/1 29/14/1 28/10/1
f 17/11/2 18/15/2 39/16/2 38/12/2
f 8/13/1 9/17/1 30/18/1 29/14/1
f 1/19/1 2/20/1 23/21/1 22/22/1
f 18/15/2 19/23/2 40/24/2 39/16/2
f 11/25/1 1/19/1 22/22/1 32/26/1
f 11/27/2 12/28/2 33/29/2 32/30/2
f 9/17/1 10/31/1 31/32/1 30/18/1
f 2/20/1 3/33/1 24/34/1 23/21/1
f 19/23/2 20/35/2 41/36/2 40/24/2
f 12/28/2 13/37/2 34/38/2 33/29/2
f 3/33/1 4/39/1 25/40/1 24/34/1
f 20/35/2 21/41/2 42/42/2 41/36/2
f 13/37/2 14/43/2 35/44/2 34/38/2
f 4/39/1 5/1/1 26/4/1 25/40/1
f 14/43/2 15/5/2 36/8/2 35/44/2
